<?xml version="1.0" standalone="no"?>
<!DOCTYPE svg PUBLIC "-//W3C//DTD SVG 20010904//EN"
 "http://www.w3.org/TR/2001/REC-SVG-20010904/DTD/svg10.dtd">
<svg version="1.0" xmlns="http://www.w3.org/2000/svg"
 width="1195.000000pt" height="1195.000000pt" viewBox="0 0 1195.000000 1195.000000"
 preserveAspectRatio="xMidYMid meet">
<metadata>
Created by potrace 1.11, written by Peter Selinger 2001-2013
</metadata>
<g transform="translate(0.000000,1195.000000) scale(0.100000,-0.100000)"
fill="#000000" stroke="none">
<path d="M6010 11874 c-69 -41 -207 -123 -308 -182 -100 -59 -195 -114 -210
-123 -15 -9 -43 -25 -62 -36 -19 -11 -98 -58 -175 -103 -77 -46 -203 -120
-280 -165 -77 -45 -165 -97 -195 -115 -30 -18 -68 -40 -85 -50 -43 -24 -594
-348 -690 -405 -44 -26 -98 -58 -120 -70 -22 -13 -229 -134 -460 -270 -231
-136 -440 -259 -465 -273 -24 -14 -84 -49 -133 -78 -49 -30 -91 -54 -92 -54
-1 0 -55 -31 -119 -70 -65 -38 -119 -70 -121 -70 -2 0 -41 -23 -87 -50 -99
-61 -53 -34 -393 -233 -154 -90 -370 -217 -480 -281 -110 -65 -354 -208 -542
-318 l-343 -200 0 -554 0 -555 53 30 c28 16 88 50 132 76 44 27 94 56 110 65
17 9 233 135 480 280 248 145 470 275 495 289 26 14 130 76 233 136 103 61
202 118 220 129 18 10 109 63 202 119 94 55 184 108 201 117 17 10 62 37 99
59 37 23 69 41 71 41 2 0 43 24 91 53 49 30 109 65 133 79 25 14 123 71 219
127 95 57 188 111 205 121 17 9 105 61 196 115 91 54 179 106 196 116 29 16
193 112 514 302 74 44 151 88 170 99 19 11 121 71 225 133 105 61 217 128 250
147 33 19 150 88 260 153 110 65 214 126 230 135 17 10 80 47 140 82 61 36
184 109 275 162 91 54 172 101 180 107 40 24 370 218 783 460 114 66 120 49
-48 141 -55 31 -259 144 -452 252 -194 108 -359 198 -365 200 -7 3 -69 -29
-138 -70z"/>
<path d="M8224 10781 c-11 -11 -70 -46 -104 -63 -14 -7 -37 -20 -52 -30 -14
-10 -52 -33 -85 -51 -32 -19 -186 -109 -343 -202 -283 -167 -308 -181 -385
-225 -22 -13 -56 -33 -75 -45 -19 -12 -160 -96 -314 -186 -377 -222 -369 -217
-386 -226 -8 -4 -69 -39 -135 -78 -181 -108 -339 -202 -376 -223 -19 -11 -97
-57 -174 -102 -77 -46 -153 -91 -170 -100 -16 -9 -320 -188 -675 -397 -355
-209 -793 -467 -975 -573 -181 -106 -341 -200 -355 -209 -14 -8 -34 -21 -45
-27 -55 -30 -444 -259 -467 -275 -15 -11 -30 -19 -33 -19 -3 0 -35 -18 -71
-40 -36 -22 -70 -40 -75 -40 -5 0 -9 -4 -9 -10 0 -5 -4 -10 -10 -10 -5 0 -54
-26 -107 -58 -54 -32 -207 -123 -341 -201 -133 -78 -257 -150 -275 -161 -17
-11 -41 -24 -52 -30 -11 -5 -38 -21 -60 -34 -22 -14 -51 -31 -65 -39 -87 -48
-640 -373 -662 -388 -15 -10 -29 -19 -32 -19 -2 0 -53 -29 -113 -64 -59 -35
-127 -74 -149 -87 -23 -13 -123 -71 -223 -129 l-181 -105 0 -552 c0 -304 3
-553 8 -553 4 0 23 10 42 22 19 11 49 29 65 38 32 19 821 481 870 511 17 10
41 24 55 32 14 7 124 72 245 143 121 72 262 155 313 184 51 30 100 60 110 65
9 6 35 21 57 33 22 12 54 31 70 41 17 10 188 110 380 223 586 344 637 374
1025 601 206 121 436 256 510 299 74 43 142 82 150 87 8 6 75 45 149 88 73 43
163 96 201 118 70 41 538 317 591 348 17 9 186 109 377 221 191 112 362 212
379 222 33 19 1193 701 1398 822 117 69 125 74 250 146 86 50 91 54 172 104
30 17 55 32 57 32 2 0 45 25 95 55 51 30 95 55 98 55 4 0 14 6 22 14 9 7 36
25 61 38 62 35 532 310 605 355 11 7 38 22 60 34 75 40 135 83 128 90 -5 4
-208 118 -453 254 -245 136 -459 255 -476 266 -18 11 -34 15 -40 10z"/>
<path d="M10265 9583 c-33 -20 -73 -44 -90 -53 -129 -75 -201 -118 -228 -134
-18 -11 -48 -29 -69 -40 -20 -12 -98 -58 -175 -103 -76 -44 -226 -133 -333
-196 -107 -63 -323 -190 -480 -282 -275 -162 -327 -193 -462 -271 -35 -20 -76
-45 -93 -55 -16 -10 -37 -22 -45 -26 -8 -4 -38 -22 -67 -40 -29 -18 -55 -33
-58 -33 -3 0 -18 -8 -33 -19 -24 -17 -356 -213 -414 -244 -24 -13 -119 -69
-166 -98 -15 -9 -55 -33 -89 -53 -142 -82 -189 -110 -438 -256 -143 -84 -273
-161 -290 -170 -16 -9 -100 -59 -185 -110 -85 -50 -171 -101 -190 -111 -19
-11 -49 -28 -65 -38 -74 -44 -386 -228 -450 -264 -38 -22 -86 -50 -105 -62
-30 -19 -517 -305 -605 -355 -16 -10 -131 -77 -255 -150 -124 -73 -238 -141
-255 -150 -34 -19 -247 -145 -1030 -605 -297 -174 -553 -325 -570 -334 -16
-10 -190 -112 -385 -226 -195 -115 -418 -245 -495 -290 -77 -45 -311 -182
-520 -305 -209 -123 -420 -246 -470 -275 -49 -29 -162 -95 -250 -146 -88 -52
-172 -100 -185 -107 -14 -7 -35 -21 -48 -30 l-22 -17 2 -552 3 -553 145 86
c80 47 161 94 180 105 19 11 42 24 50 29 14 9 136 80 385 225 50 29 152 89
228 134 76 44 143 81 148 81 5 0 9 5 9 10 0 6 5 10 10 10 6 0 70 35 143 79 72
43 362 212 642 376 281 163 522 306 537 316 15 10 29 19 32 19 2 0 40 21 83
47 147 87 468 276 503 295 19 11 94 55 165 97 72 43 157 93 190 111 33 19 71
41 85 50 23 16 169 101 250 148 19 10 134 78 255 149 121 72 274 162 340 200
66 39 210 123 320 188 110 65 214 126 231 135 17 10 110 64 205 121 220 129
674 396 714 419 17 10 203 119 414 244 211 124 385 226 387 226 1 0 39 23 83
50 44 28 83 50 86 50 3 0 18 9 33 19 29 20 453 271 512 303 19 10 42 23 50 28
57 36 182 110 186 110 2 0 21 11 42 24 20 13 102 62 182 109 80 46 271 159
425 249 154 91 316 186 360 212 44 25 87 50 95 56 13 8 65 38 162 95 10 5 151
89 315 185 426 252 435 257 463 273 27 16 210 123 684 402 168 99 306 183 306
186 0 5 -72 46 -444 252 -28 16 -67 38 -86 49 -19 11 -69 39 -110 61 -41 22
-100 54 -130 72 -75 44 -188 105 -192 105 -1 -1 -30 -17 -63 -37z"/>
<path d="M11030 7642 c-589 -347 -1030 -605 -1450 -852 -589 -345 -1137 -668
-1175 -691 -16 -10 -41 -24 -55 -32 -62 -33 -738 -431 -762 -448 -15 -10 -29
-19 -31 -19 -2 0 -215 -124 -473 -276 -258 -152 -485 -285 -504 -296 -19 -11
-189 -111 -377 -222 -189 -110 -351 -206 -360 -211 -44 -25 -158 -92 -186
-108 -44 -27 -602 -355 -667 -392 -119 -70 -531 -311 -825 -485 -170 -100
-319 -188 -330 -194 -18 -10 -805 -472 -845 -497 -57 -34 -222 -129 -225 -129
-2 0 -21 -12 -42 -26 -21 -14 -47 -30 -58 -35 -11 -5 -27 -13 -35 -19 -23 -15
-371 -220 -374 -220 -1 0 -74 -43 -161 -95 -87 -52 -163 -95 -169 -95 -28 0 2
-18 474 -283 19 -11 85 -47 145 -82 61 -34 130 -73 155 -87 53 -30 47 -26 400
-226 151 -85 292 -166 312 -179 21 -12 40 -23 43 -23 2 0 67 -35 142 -79 76
-43 161 -91 188 -106 64 -36 249 -140 390 -220 108 -62 412 -234 715 -405 164
-93 744 -420 820 -462 25 -14 90 -51 145 -82 55 -32 107 -58 115 -58 8 -1 67
28 130 64 132 75 127 72 365 205 99 56 362 203 585 328 223 125 430 241 460
258 50 27 133 74 245 137 22 13 59 33 83 46 23 13 63 36 90 51 173 97 305 170
352 196 30 16 60 33 65 37 6 4 37 22 70 40 33 18 132 74 220 123 88 49 180
101 205 115 25 13 59 32 75 42 17 10 53 30 80 45 71 39 957 534 975 545 8 5
89 50 180 101 91 51 179 100 195 109 41 24 499 281 555 312 25 14 63 35 85 48
22 13 58 33 80 44 22 12 79 44 127 70 l86 49 0 549 -1 548 -61 -33 c-76 -42
-130 -73 -276 -155 -63 -35 -133 -74 -155 -87 -74 -41 -629 -351 -835 -467
-277 -156 -267 -150 -335 -188 -56 -31 -141 -78 -260 -145 -27 -16 -70 -39
-95 -53 -25 -13 -74 -41 -110 -62 -36 -20 -85 -48 -110 -62 -25 -14 -120 -67
-212 -119 -92 -52 -187 -104 -210 -117 -57 -31 -383 -213 -433 -242 -22 -13
-137 -77 -255 -143 -118 -65 -244 -136 -280 -157 -36 -20 -92 -52 -125 -70
-33 -18 -166 -92 -295 -165 -316 -177 -281 -157 -670 -375 -190 -105 -358
-200 -375 -210 -16 -10 -52 -30 -80 -45 -27 -15 -69 -38 -92 -52 l-41 -24
-139 79 c-76 43 -145 81 -153 85 -8 4 -31 17 -50 28 -43 26 -870 495 -925 524
-22 12 -103 58 -180 102 -77 44 -162 93 -190 108 -27 15 -79 45 -115 65 -36
20 -85 48 -110 62 -25 14 -85 48 -134 77 -49 28 -92 51 -95 51 -3 0 -14 7 -24
14 -16 12 15 33 295 196 172 100 329 192 348 205 32 20 127 76 365 215 44 25
251 147 460 270 209 123 414 243 455 267 41 24 82 48 90 53 8 6 139 82 290
170 151 88 282 164 290 169 8 5 89 53 180 107 91 53 239 140 330 194 296 174
1260 740 1298 762 20 11 49 28 64 37 15 9 69 41 120 70 51 30 147 87 213 126
155 93 772 455 805 472 14 8 37 22 52 31 15 9 92 55 170 101 79 46 415 243
748 438 333 196 616 363 630 371 14 9 39 24 55 33 17 9 53 31 80 48 28 17 57
34 67 37 15 5 16 53 16 560 0 305 -3 554 -7 554 -3 0 -112 -62 -241 -138z"/>
</g>
</svg>
