<svg version="1" xmlns="http://www.w3.org/2000/svg" width="933.333" height="933.333" viewBox="0 0 700.000000 700.000000"><path d="M0 350v350h700V0H0v350zm689.5 0v339.5h-679L10.2 351c-.1-186.2 0-339.1.3-339.8.3-1 68.8-1.2 339.7-1l339.3.3V350z"/><path d="M53 342v177h43l.2-147 .3-147.1 39.9 117.8c21.9 64.8 44.4 131 49.9 147.1l9.9 29.2 24.2-.2 24.1-.3 49-146.1 49-146.2.3 146.4.2 146.4h43V165h-62.8l-50.7 152.2c-27.9 83.8-51.1 152.6-51.4 153.1-.4.4-24.1-68-52.7-152l-51.9-152.8-31.8-.3L53 165v177zM533.5 258.1c-41 5.3-73.5 33.8-88 77.2-12.8 38.4-12.3 87.6 1.1 123.5 8.1 21.6 23.3 41.8 39.9 53.2 7.5 5.2 22.7 11.9 33.2 14.7 8.9 2.4 11.6 2.7 28.8 2.7 21 .1 27.5-.9 42.5-6.3 34.6-12.7 56.8-43.6 61.5-85.9l.7-6.2-20.8.2-20.7.3-2.3 9c-5.9 23.8-15.2 37.3-31.5 45.4-9.7 4.9-19 6.5-32.4 5.8-17.4-1-29.3-6.3-41.5-18.6-11.6-11.7-18.2-26-22.6-48.6-2.2-11-2.5-44-.6-55.5 6.7-40.2 23-63.3 50.7-71.6 7.8-2.4 26.3-2.4 35.2-.1 21.3 5.6 35.8 22 40.7 46.2l1.2 6 20.7.3c17.5.2 20.7 0 20.7-1.2 0-.8-.5-5-1.1-9.3-3.5-25.6-12.9-44.7-28.9-58.1-22-18.6-54.4-27.2-86.5-23.1z"/></svg>