<?xml version="1.0" standalone="no"?>
<!DOCTYPE svg PUBLIC "-//W3C//DTD SVG 20010904//EN"
 "http://www.w3.org/TR/2001/REC-SVG-20010904/DTD/svg10.dtd">
<svg version="1.0" xmlns="http://www.w3.org/2000/svg"
 width="308.000000pt" height="308.000000pt" viewBox="0 0 308.000000 308.000000"
 preserveAspectRatio="xMidYMid meet">
<metadata>
Created by potrace 1.11, written by Peter Selinger 2001-2013
</metadata>
<g transform="translate(0.000000,308.000000) scale(0.100000,-0.100000)"
fill="#000000" stroke="none">
<path d="M0 1540 l0 -1540 1540 0 1540 0 0 1540 0 1540 -1540 0 -1540 0 0
-1540z m2830 5 l0 -1295 -1295 0 -1295 0 0 1295 0 1295 1295 0 1295 0 0 -1295z"/>
<path d="M460 1575 l0 -605 95 0 95 0 2 393 3 392 161 -295 160 -295 71 -3 72
-3 34 63 c19 35 90 169 158 298 l124 235 5 -390 5 -390 98 -3 97 -3 0 606 0
606 -87 -3 -88 -3 -66 -125 c-36 -69 -127 -243 -203 -387 -76 -145 -141 -263
-145 -263 -4 0 -74 127 -156 283 -82 155 -174 329 -205 387 l-55 105 -88 3
-87 3 0 -606z"/>
<path d="M2177 1819 c-132 -26 -241 -111 -298 -232 -33 -70 -34 -75 -34 -202
0 -127 1 -132 33 -201 60 -128 165 -204 314 -227 118 -18 289 18 363 77 l29
23 -28 72 c-15 39 -30 71 -32 71 -2 0 -22 -11 -43 -24 -104 -66 -246 -75 -324
-20 -60 43 -91 110 -96 207 -6 134 31 221 112 268 35 20 56 24 122 24 72 0 88
-4 150 -35 39 -19 73 -36 76 -38 4 -2 19 29 34 67 33 83 31 87 -52 126 -101
48 -220 64 -326 44z"/>
</g>
</svg>
