<svg height="496pt" viewBox="0 0 496 496" width="496pt" xmlns="http://www.w3.org/2000/svg" xmlns:xlink="http://www.w3.org/1999/xlink"><linearGradient id="a" gradientUnits="userSpaceOnUse" x1="248" x2="248" y1="496" y2="0"><stop offset="0" stop-color="#9f2fff"/><stop offset="1" stop-color="#0bb1d3"/></linearGradient><path d="m448 0h-448v400h224v96h272v-304h-48zm-16 16v48h-416v-48zm-416 368v-304h416v112h-155.3125l-52.6875 52.6875v43.3125h-152c-22.054688 0-40 17.945312-40 40s17.945312 40 40 40h152v16zm112-32v-16h144v16zm-56 0c-13.230469 0-24-10.769531-24-24s10.769531-24 24-24h8v48zm24-48h16v48h-16zm192 3.542969 45.703125 17.136719c1.375.519531 2.296875 1.847656 2.296875 3.320312s-.921875 2.800781-2.304688 3.320312l-45.695312 17.136719zm-16 12.457031h-144v-16h144zm0-100.6875v20.6875h-20.6875zm208 260.6875h-240v-112h41.449219l57.863281-21.695312c7.589844-2.839844 12.6875-10.199219 12.6875-18.304688s-5.097656-15.464844-12.679688-18.304688l-57.871093-21.695312h-41.449219v-32h48v-48h192zm-432-432h-16v-16h16zm32 0h-16v-16h16zm32 0h-16v-16h16zm352 192h-160v-16h160zm-160 32v-16h160v16zm64 16h96v16h-96zm0 32h96v16h-96zm0 32h96v16h-96zm-112 32h208v16h-208zm0 32h208v16h-208zm192 32h16v16h-16zm-192 0h176v16h-176zm-48-352h-176v80h176zm-16 64h-144v-48h144zm16 32h-176v80h176zm-16 64h-144v-48h144zm0 0" fill="url(#a)"/></svg>