<!-- Generated by IcoMoon.io -->
<svg version="1.1" xmlns="http://www.w3.org/2000/svg" width="40" height="40" viewBox="0 0 40 40">
<title>github</title>
<path d="M20 0c-11.050 0-20 8.955-20 20 0 8.837 5.73 16.333 13.675 18.975 1 0.187 1.367-0.43 1.367-0.962 0-0.475-0.018-1.733-0.025-3.4-5.565 1.207-6.737-2.683-6.737-2.683-0.91-2.31-2.225-2.925-2.225-2.925-1.813-1.24 0.14-1.215 0.14-1.215 2.007 0.14 3.063 2.060 3.063 2.060 1.785 3.058 4.682 2.175 5.825 1.663 0.18-1.293 0.695-2.175 1.267-2.675-4.443-0.5-9.11-2.22-9.11-9.882 0-2.183 0.775-3.967 2.058-5.367-0.225-0.505-0.9-2.537 0.175-5.293 0 0 1.675-0.537 5.5 2.050 1.6-0.445 3.3-0.665 5-0.675 1.7 0.010 3.4 0.23 5 0.675 3.8-2.588 5.475-2.050 5.475-2.050 1.075 2.755 0.4 4.787 0.2 5.293 1.275 1.4 2.050 3.185 2.050 5.367 0 7.683-4.675 9.375-9.125 9.867 0.7 0.6 1.35 1.825 1.35 3.7 0 2.675-0.025 4.825-0.025 5.475 0 0.525 0.35 1.15 1.375 0.95 8.003-2.623 13.727-10.123 13.727-18.948 0-11.045-8.955-20-20-20z"></path>
</svg>
