<svg id="Layer_1" data-name="Layer 1" xmlns="http://www.w3.org/2000/svg" viewBox="0 0 1065.18 1194.71"><defs><style>.cls-1{fill:#fff;}</style></defs><title>my-logo-wh</title><polygon class="cls-1" points="318.85 964.22 532.12 1084.85 1063 787.72 1063 897.46 532.12 1194.71 126.7 965.79 1063 416.27 1063 527.3 318.85 964.22"/><path class="cls-1" d="M0,912V801C294,629,719,379.18,968.14,232.88l97,54C813.89,434.62,314,729.06,0,912Z"/><path class="cls-1" d="M0,672.61V561.55c224-130,519.22-304.49,758.7-445.11l97.12,54.09C591.88,325.61,240,532,0,672.61Z"/><path class="cls-1" d="M0,433.19v-111C161,228.13,360.38,110.88,549.25,0l97.17,54.12C424.45,184.48,182,327.45,0,433.19Z"/></svg>