<?xml version="1.0" encoding="iso-8859-1"?>
<!-- Generator: Adobe Illustrator 19.0.0, SVG Export Plug-In . SVG Version: 6.00 Build 0)  -->
<svg version="1.1" id="Layer_1" xmlns="http://www.w3.org/2000/svg" xmlns:xlink="http://www.w3.org/1999/xlink" x="0px" y="0px"
	 viewBox="0 0 512 512" style="enable-background:new 0 0 512 512;" xml:space="preserve">
<circle style="fill:#D35933;" cx="256" cy="256" r="256"/>
<path style="fill:#B54324;" d="M511.94,260.722L391.94,140.722L248.711,284.913l-153.466,79.01l147.749,147.751
	c4.308,0.216,8.642,0.326,13.003,0.326C395.805,512,509.419,399.927,511.94,260.722z"/>
<path style="fill:#D0D1D3;" d="M378.213,321.791H147.101c-10.076,0-18.246-8.17-18.246-18.246v-150.83
	c0-10.076,8.17-18.246,18.246-18.246h231.112c10.076,0,18.246,8.17,18.246,18.246v150.83
	C396.459,313.623,388.289,321.791,378.213,321.791z"/>
<path style="fill:#BFBFBF;" d="M378.213,134.47H261.748v187.323h116.465c10.076,0,18.246-8.17,18.246-18.246V152.716
	C396.459,142.638,388.289,134.47,378.213,134.47z"/>
<path style="fill:#59595B;" d="M116.962,295.031c-8.211,0-14.867,6.656-14.867,14.867v23.788c0,8.211,6.656,14.867,14.867,14.867
	h144.786v-53.52H116.962V295.031z"/>
<path style="fill:#272525;" d="M408.352,295.031H261.746v53.52h146.606c8.211,0,14.867-6.656,14.867-14.867v-23.788
	C423.219,301.687,416.563,295.031,408.352,295.031z"/>
<rect x="235.899" y="295.029" style="fill:#808183;" width="53.527" height="14.596"/>
<rect x="142.239" y="151.911" style="fill:#02B2B2;" width="240.847" height="133.792"/>
<rect x="261.741" y="151.911" style="fill:#009995;" width="121.328" height="133.792"/>
<path style="fill:#59595B;" d="M218.302,371.664H109.823c-9.718,0-17.594-7.878-17.594-17.594V178.824
	c0-9.718,7.878-17.594,17.594-17.594h108.479c9.718,0,17.594,7.878,17.594,17.594v175.244
	C235.898,363.785,228.019,371.664,218.302,371.664z"/>
<path style="fill:#272525;" d="M218.302,161.23h-56.541v210.434h56.541c9.718,0,17.594-7.878,17.594-17.596V178.824
	C235.898,169.107,228.019,161.23,218.302,161.23z"/>
<rect x="102.434" y="176.821" style="fill:#02B2B2;" width="123.259" height="165.788"/>
<rect x="161.754" y="176.821" style="fill:#00938F;" width="63.94" height="165.788"/>
<path style="fill:#FFFFFF;" d="M279.278,380.978h-57.575c-7.837,0-14.191-6.354-14.191-14.191l0.003-116.876
	c0-7.837,6.354-14.189,14.191-14.189h57.575c7.837,0,14.191,6.354,14.191,14.191l-0.003,116.876
	C293.467,374.625,287.115,380.978,279.278,380.978z"/>
<path style="fill:#D0D1D3;" d="M279.28,235.722h-29.025v145.256h29.024c7.837,0,14.191-6.353,14.191-14.189l0.003-116.876
	C293.471,242.076,287.118,235.722,279.28,235.722z"/>
<rect x="215.661" y="248.432" style="fill:#71E2EF;" width="69.68" height="108.865"/>
<rect x="250.259" y="248.432" style="fill:#38C6D9;" width="35.076" height="108.865"/>
<g>
</g>
<g>
</g>
<g>
</g>
<g>
</g>
<g>
</g>
<g>
</g>
<g>
</g>
<g>
</g>
<g>
</g>
<g>
</g>
<g>
</g>
<g>
</g>
<g>
</g>
<g>
</g>
<g>
</g>
</svg>
