<svg height="496pt" viewBox="0 0 496 496.432" width="496pt" xmlns="http://www.w3.org/2000/svg" xmlns:xlink="http://www.w3.org/1999/xlink"><linearGradient id="a" gradientUnits="userSpaceOnUse" x1="248.216" x2="248.216" y1="496.4336" y2="0"><stop offset="0" stop-color="#9f2fff"/><stop offset="1" stop-color="#0bb1d3"/></linearGradient><path d="m48.214844 48h-16v-16h16zm32-16h-16v16h16zm32 0h-16v16h16zm248.953125 190.136719 7.046875.847656v65.230469c0 76.664062-45.933594 144.625-117.015625 173.144531l-2.984375 1.191406-2.984375-1.191406c-71.078125-28.527344-117.015625-96.488281-117.015625-173.152344v-65.230469l7.050781-.839843c38.367187-4.609375 75.964844-17.816407 108.726563-38.191407l4.222656-2.632812 4.226562 2.632812c32.757813 20.375 70.359375 33.582032 108.726563 38.191407zm-8.953125 14.941406c-36.589844-5.351563-72.3125-18.046875-104-36.972656-31.6875 18.925781-67.40625 31.621093-104 36.972656v51.128906c0 69.007813 40.714844 130.3125 104 157.066407 63.289062-26.761719 104-88.058594 104-157.066407zm-352-237.078125h496v448h-165.574219c-22.449219 20.929688-49.410156 37.425781-79.898437 47.59375l-2.527344.839844-2.527344-.839844c-30.488281-10.160156-57.449219-26.664062-79.894531-47.59375h-165.578125zm384 288.207031v-80.34375c-48.589844-1.597656-96.390625-17.742187-136-45.960937-39.605469 28.21875-87.40625 44.355468-136 45.960937v80.34375c0 86.457031 54.539062 163 136 191.335938 81.464844-28.328125 136-104.878907 136-191.335938zm96 143.792969v-352h-464v352h134.007812c-33.992187-38.902344-54.007812-89.503906-54.007812-143.792969v-96.207031h8c49.863281 0 99.304687-16.480469 139.199218-46.398438l4.800782-3.601562 4.800781 3.601562c39.894531 29.917969 89.335937 46.398438 139.199219 46.398438h8v96.207031c0 54.289063-20.015625 104.890625-54.007813 143.792969zm-464-416v48h464v-48zm232 216c22.058594 0 40 17.945312 40 40v25.472656c9.289062 3.3125 16 12.113282 16 22.527344v64c0 13.230469-10.765625 24-24 24h-64c-13.230469 0-24-10.769531-24-24v-64c0-10.414062 6.714844-19.214844 16-22.527344v-25.472656c0-22.054688 17.945312-40 40-40zm40 88c0-4.40625-3.589844-8-8-8h-64c-4.40625 0-8 3.59375-8 8v64c0 4.40625 3.59375 8 8 8h64c4.410156 0 8-3.59375 8-8zm-40-72c-13.230469 0-24 10.769531-24 24v24h48v-24c0-13.230469-10.765625-24-24-24zm24 96c0 10.414062-6.710938 19.214844-16 22.527344v17.472656h-16v-17.472656c-9.285156-3.3125-16-12.113282-16-22.527344 0-13.230469 10.769531-24 24-24 13.234375 0 24 10.769531 24 24zm-16 0c0-4.40625-3.589844-8-8-8-4.40625 0-8 3.59375-8 8s3.59375 8 8 8c4.410156 0 8-3.59375 8-8zm-224-232h224v-16h-224zm0 32h160v-16h-160zm0 32h96v-16h-96zm0 0" fill="url(#a)"/></svg>