<?xml version="1.0" encoding="iso-8859-1"?>
<!-- Generator: Adobe Illustrator 19.0.0, SVG Export Plug-In . SVG Version: 6.00 Build 0)  -->
<svg version="1.1" id="Layer_1" xmlns="http://www.w3.org/2000/svg" xmlns:xlink="http://www.w3.org/1999/xlink" x="0px" y="0px"
	 viewBox="0 0 512 512" style="enable-background:new 0 0 512 512;" xml:space="preserve">
<circle style="fill:#71E2EF;" cx="256" cy="256" r="256"/>
<path style="fill:#38C6D9;" d="M512,256c0-0.872-0.024-1.739-0.033-2.612l-118.36-118.36l-227.25,155.622l-9.375,12.007
	l-37.314,75.74l134.092,133.575c0.746,0.007,1.491,0.028,2.239,0.028C397.384,512,512,397.384,512,256z"/>
<path style="fill:#FFFFFF;" d="M378.54,384H133.458c-10.869,0-19.68-8.811-19.68-19.682V147.68c0-10.869,8.811-19.68,19.68-19.68
	H378.54c10.869,0,19.682,8.811,19.682,19.68v216.638C398.222,375.189,389.411,384,378.54,384z"/>
<path style="fill:#D0D1D3;" d="M378.54,128H255.855v256H378.54c10.869,0,19.682-8.811,19.682-19.682V147.682
	C398.222,136.811,389.411,128,378.54,128z"/>
<path style="fill:#386895;" d="M398.222,147.682c0-10.869-8.811-19.682-19.682-19.682H133.46c-10.871,0-19.682,8.811-19.682,19.682
	v20.744h284.444V147.682z"/>
<path style="fill:#273B7A;" d="M398.222,147.682c0-10.869-8.811-19.682-19.682-19.682H255.855v40.426h142.367V147.682z"/>
<path style="fill:#808183;" d="M255.857,367.049H113.988c1.333,9.575,9.528,16.951,19.47,16.951h122.397H378.54
	c9.942,0,18.137-7.378,19.47-16.951L255.857,367.049L255.857,367.049z"/>
<path style="fill:#59595B;" d="M255.857,367.049V384h122.685c9.942,0,18.137-7.378,19.47-16.951L255.857,367.049L255.857,367.049z"
	/>
<path style="fill:#D0D1D3;" d="M373.226,158.599H138.774c-4.046,0-7.327-3.281-7.327-7.327l0,0c0-4.046,3.281-7.327,7.327-7.327
	h234.451c4.046,0,7.327,3.281,7.327,7.327l0,0C380.552,155.319,377.272,158.599,373.226,158.599z"/>
<path style="fill:#A6A8AA;" d="M373.226,143.946H255.857v14.653h117.369c4.046,0,7.327-3.281,7.327-7.327
	S377.272,143.946,373.226,143.946z"/>
<rect x="142.222" y="184.889" style="fill:#FF7F4F;" width="227.556" height="56.889"/>
<rect x="255.862" y="184.889" style="fill:#D35933;" width="113.916" height="56.889"/>
<g>
	<path style="fill:#FFC61B;" d="M233.158,260.31h-85.333c-1.903,0-3.448-1.545-3.448-3.448c0-1.903,1.545-3.448,3.448-3.448h85.333
		c1.903,0,3.448,1.545,3.448,3.448C236.606,258.765,235.063,260.31,233.158,260.31z"/>
	<path style="fill:#FFC61B;" d="M233.158,294.098h-85.333c-1.903,0-3.448-1.545-3.448-3.448s1.545-3.448,3.448-3.448h85.333
		c1.903,0,3.448,1.545,3.448,3.448S235.063,294.098,233.158,294.098z"/>
	<path style="fill:#FFC61B;" d="M233.158,310.993h-85.333c-1.903,0-3.448-1.545-3.448-3.448s1.545-3.448,3.448-3.448h85.333
		c1.903,0,3.448,1.545,3.448,3.448S235.063,310.993,233.158,310.993z"/>
	<path style="fill:#FFC61B;" d="M233.158,344.781h-85.333c-1.903,0-3.448-1.545-3.448-3.448s1.545-3.448,3.448-3.448h85.333
		c1.903,0,3.448,1.545,3.448,3.448S235.063,344.781,233.158,344.781z"/>
	<path style="fill:#FFC61B;" d="M233.158,327.887h-85.333c-1.903,0-3.448-1.545-3.448-3.448s1.545-3.448,3.448-3.448h85.333
		c1.903,0,3.448,1.545,3.448,3.448S235.063,327.887,233.158,327.887z"/>
	<path style="fill:#FFC61B;" d="M233.158,277.204h-85.333c-1.903,0-3.448-1.545-3.448-3.448s1.545-3.448,3.448-3.448h85.333
		c1.903,0,3.448,1.545,3.448,3.448S235.063,277.204,233.158,277.204z"/>
</g>
<g>
	<path style="fill:#FFFFFF;" d="M366.33,260.31H252.552c-1.903,0-3.448-1.545-3.448-3.448c0-1.903,1.545-3.448,3.448-3.448H366.33
		c1.903,0,3.448,1.545,3.448,3.448C369.778,258.765,368.235,260.31,366.33,260.31z"/>
	<path style="fill:#FFFFFF;" d="M366.33,294.098H252.552c-1.903,0-3.448-1.545-3.448-3.448s1.545-3.448,3.448-3.448H366.33
		c1.903,0,3.448,1.545,3.448,3.448S368.235,294.098,366.33,294.098z"/>
	<path style="fill:#FFFFFF;" d="M366.33,310.993H252.552c-1.903,0-3.448-1.545-3.448-3.448s1.545-3.448,3.448-3.448H366.33
		c1.903,0,3.448,1.545,3.448,3.448S368.235,310.993,366.33,310.993z"/>
	<path style="fill:#FFFFFF;" d="M366.33,344.781H252.552c-1.903,0-3.448-1.545-3.448-3.448s1.545-3.448,3.448-3.448H366.33
		c1.903,0,3.448,1.545,3.448,3.448S368.235,344.781,366.33,344.781z"/>
	<path style="fill:#FFFFFF;" d="M366.33,327.887H252.552c-1.903,0-3.448-1.545-3.448-3.448s1.545-3.448,3.448-3.448H366.33
		c1.903,0,3.448,1.545,3.448,3.448S368.235,327.887,366.33,327.887z"/>
	<path style="fill:#FFFFFF;" d="M366.33,277.204H252.552c-1.903,0-3.448-1.545-3.448-3.448s1.545-3.448,3.448-3.448H366.33
		c1.903,0,3.448,1.545,3.448,3.448S368.235,277.204,366.33,277.204z"/>
</g>
<path style="fill:#273B7A;" d="M378.158,397.481L378.158,397.481c-8.206,8.206-21.513,8.206-29.718,0l-59.437-59.437
	c-8.206-8.206-8.206-21.513,0-29.718l0,0c8.206-8.206,21.513-8.206,29.718,0l59.437,59.437
	C386.363,375.97,386.363,389.275,378.158,397.481z"/>
<path style="fill:#121149;" d="M289.002,308.326c-8.206,8.206-8.206,21.513,0,29.718l59.437,59.437
	c8.206,8.206,21.513,8.206,29.718,0c0.06-0.06,0.112-0.128,0.171-0.19l-89.136-89.136
	C289.13,308.215,289.063,308.265,289.002,308.326z"/>
<circle style="fill:#FFFFFF;" cx="266.723" cy="286.03" r="63.042"/>
<path style="fill:#D0D1D3;" d="M222.322,241.283c-0.06,0.06-0.124,0.116-0.184,0.176c-24.619,24.619-24.619,64.536,0,89.155
	s64.536,24.619,89.155,0c0.06-0.06,0.116-0.124,0.176-0.184L222.322,241.283z"/>
<path style="fill:#386895;" d="M266.714,358.528c-18.572,0-37.143-7.07-51.281-21.209c-28.277-28.275-28.277-74.287,0-102.562
	c28.276-28.279,74.287-28.279,102.562,0c28.277,28.276,28.277,74.287,0,102.562C303.857,351.458,285.286,358.528,266.714,358.528z
	 M266.714,232.501c-13.715,0-27.431,5.22-37.874,15.662c-20.882,20.883-20.882,54.863,0,75.747
	c20.885,20.882,54.862,20.882,75.747,0c20.882-20.883,20.882-54.863,0-75.747C294.145,237.721,280.429,232.501,266.714,232.501z"/>
<path style="fill:#273B7A;" d="M304.764,323.725c-0.06,0.06-0.116,0.124-0.176,0.184c-20.885,20.882-54.862,20.882-75.747,0
	c-20.882-20.883-20.882-54.863,0-75.747c0.06-0.06,0.124-0.116,0.184-0.176l-13.407-13.407c-0.06,0.06-0.124,0.116-0.184,0.176
	c-28.277,28.276-28.277,74.287,0,102.562c14.138,14.139,32.709,21.209,51.281,21.209s37.143-7.07,51.281-21.209
	c0.06-0.06,0.115-0.124,0.176-0.184L304.764,323.725z"/>
<g>
</g>
<g>
</g>
<g>
</g>
<g>
</g>
<g>
</g>
<g>
</g>
<g>
</g>
<g>
</g>
<g>
</g>
<g>
</g>
<g>
</g>
<g>
</g>
<g>
</g>
<g>
</g>
<g>
</g>
</svg>
