<!-- Generated by IcoMoon.io -->
<svg version="1.1" xmlns="http://www.w3.org/2000/svg" width="40" height="40" viewBox="0 0 40 40">
<title>steam</title>
<path d="M19.965 0c-10.505 0-19.115 8.1-19.93 18.395l10.72 4.43c0.907-0.617 2.005-0.983 3.185-0.983 0.105 0 0.21 0.005 0.315 0.010l4.77-6.903v-0.1c0-4.158 3.38-7.54 7.54-7.54 4.158 0 7.542 3.385 7.542 7.545s-3.385 7.543-7.542 7.543h-0.175l-6.795 4.853c0 0.085 0.008 0.175 0.008 0.265 0 3.125-2.525 5.66-5.65 5.66-2.725 0-5.025-1.955-5.55-4.545l-7.678-3.18c2.375 8.395 10.083 14.55 19.238 14.55 11.045 0 20-8.955 20-20s-8.955-20-20-20zM12.565 30.35l-2.455-1.017c0.438 0.905 1.19 1.665 2.19 2.082 2.162 0.9 4.655-0.125 5.555-2.29 0.438-1.050 0.44-2.2 0.008-3.25s-1.25-1.867-2.295-2.305c-1.040-0.433-2.15-0.415-3.13-0.050l2.537 1.050c1.595 0.667 2.35 2.5 1.683 4.093-0.662 1.595-2.495 2.35-4.090 1.685zM31.59 14.845c0-2.77-2.255-5.025-5.025-5.025-2.775 0-5.025 2.255-5.025 5.025 0 2.775 2.25 5.025 5.025 5.025 2.77 0 5.025-2.25 5.025-5.025zM22.8 14.837c0-2.087 1.688-3.775 3.775-3.775 2.083 0 3.775 1.688 3.775 3.775 0 2.085-1.692 3.775-3.775 3.775-2.087 0-3.775-1.69-3.775-3.775z"></path>
</svg>
